<svg xmlns="http://www.w3.org/2000/svg" width="70" height="74" viewBox="0 0 70 74" fill="none">
<path d="M 58.75 9.75 L 55.75 7.75 L 50 7.75 L 45.75 11 L 44.75 12.75 L 44.25 15.25 L 40.5 16.5 L 36.75 16.75 L 34.25 17.75 L 33 17.25 L 29.5 12.75 L 25.25 10.75 L 19.25 10.75 L 15.25 12.75 L 12.75 15.25 L 10.75 19 L 10.75 25.75 L 13 30 L 17 33.75 L 14.5 44.5 L 12.75 44.75 L 11 45.75 L 9 47.75 L 7.75 50 L 7.75 55.75 L 10.75 60 L 15 62 L 17.25 62 L 21.75 60 L 24 57.5 L 25 55.5 L 25 50.75 L 24 48.5 L 20.25 45 L 21.25 39 L 22 37.75 L 22 34.75 L 22.5 34.25 L 25.75 34 L 28.5 32.75 L 29.25 33 L 37.25 41 L 39.25 41 L 41 39 L 40.75 37 L 32.5 28.5 L 34 25.5 L 34 23.5 L 37.75 22.25 L 45.25 21 L 47 23 L 50.5 25 L 55.5 25 L 57.5 24 L 59.75 22 L 61 20 L 62 16.5 L 61 12.5 Z M 14.5 50 L 18 50 L 19.5 51.5 L 19.5 54.5 L 16.75 56.5 L 15.25 56.25 L 13 54.25 L 13 51.5 Z M 20.25 16.25 L 24.5 16.25 L 26 17 L 28.5 20.25 L 28.5 24.75 L 27.75 26.25 L 24.75 28.5 L 20.5 28.75 L 18.5 27.75 L 16.25 24.75 L 16 20.75 L 17 18.75 Z M 52 13 L 54.5 13.25 L 55.75 14.5 L 56.5 16.5 L 55.75 18.25 L 53.5 19.75 L 51.5 19.5 L 50 18.25 L 49.5 16 L 50 14.5 Z" fill="#003F38" fill-rule="evenodd"/>
<path d="M 50.25 37.25 L 48 37.75 L 47.5 38.5 L 44.5 39.75 L 39.75 43 L 37.75 47.25 L 37.75 55.5 L 38.75 58.5 L 41 61 L 48.25 65.25 L 52.25 66 L 53.25 65.25 L 55 65 L 63 60 L 65 55.75 L 65 47 L 63 43 L 60 40.75 L 54.25 37.5 Z M 59 50.75 L 59.25 55 L 58.5 56.5 L 54.5 58.5 L 54 57.75 L 54.25 53.25 Z M 43.75 50.75 L 48.75 53.5 L 48.75 58 L 48.25 58.5 L 44 56 Z M 46.25 45.5 L 50.5 43 L 53 43.25 L 56.5 45.5 L 51.75 48.5 L 51 48.5 Z" fill="#2EAA38" fill-rule="evenodd"/>
</svg>
