<svg xmlns="http://www.w3.org/2000/svg" width="72" height="72" viewBox="0 0 72 72" fill="none">
<path d="M 34.5 7.75 L 29.25 7.75 L 28.5 8.5 L 26.75 8.75 L 22.75 12.5 L 21.25 16.75 L 14.5 16.75 L 13.75 17.5 L 12 17.75 L 8.75 21 L 7.75 23.5 L 8 33 L 9.75 35 L 14.75 36.25 L 16.5 38 L 17.25 40 L 16.75 43.25 L 14.75 45.5 L 12.5 46.5 L 9.75 46.75 L 7.75 49.25 L 7.75 58.5 L 9.5 61.75 L 11.25 63.5 L 14.25 65 L 23.5 65 L 26 63 L 26.25 60.25 L 27.25 57.75 L 29 56.25 L 31.25 55.5 L 34.25 56 L 36.75 58.5 L 37.75 63 L 39.75 64.75 L 49.5 65 L 52.75 63.25 L 55 60.75 L 55.25 59.25 L 56 58.5 L 55.75 51.75 L 58.25 51 L 61.5 49 L 63.5 46.75 L 65 43.75 L 65.25 40.75 L 64.75 37.75 L 64.25 37.5 L 63.5 35 L 60.25 31.75 L 55.75 30.25 L 56 23.75 L 54 19.75 L 51.75 17.75 L 49 16.75 L 42.5 16.75 L 41 12.5 L 37 8.75 L 35.25 8.5 Z M 14.5 22.25 L 24 22 L 26 20.25 L 27 15.5 L 29.25 13.25 L 33.75 13 L 36.75 15.5 L 37.75 20.25 L 39.5 22 L 48.25 22 L 50.5 23.5 L 50.75 33 L 52.5 35 L 57.25 36 L 59.5 38.25 L 59.75 43 L 57.25 45.75 L 52.5 46.75 L 50.75 48.75 L 50.75 58 L 49.25 59.5 L 42.5 59.75 L 42 59.25 L 42 57.25 L 40 54 L 37.5 51.75 L 34 50.5 L 30 50.5 L 26.25 51.75 L 22.75 55.25 L 21.75 57.25 L 21.5 59.5 L 15.25 59.75 L 13.25 58.5 L 13.25 51.25 L 15.5 51 L 18.75 49 L 20.75 47 L 22.25 43 L 22.25 38.75 L 21 35.25 L 17.5 31.75 L 13 30.25 L 13 23.75 Z" fill="#003F38" fill-rule="evenodd"/>
</svg>
