<svg xmlns="http://www.w3.org/2000/svg" width="77" height="70" viewBox="0 0 77 70" fill="none">
<path d="M 14.75 31 L 13.75 32.25 L 14 36 L 16 41.25 L 18.25 44.5 L 22.5 48.5 L 27.5 51.5 L 33 53.75 L 36.25 53.75 L 36.75 52 L 35.5 50.25 L 29.75 45 L 24.25 41 L 19 35.5 L 16.5 31.5 Z" fill="#AED6AB" fill-rule="evenodd"/>
<path d="M 63 13.75 L 61 14 L 59.5 19 L 58.25 21.25 L 51.75 29.5 L 51.25 32.5 L 51.75 38 L 53.75 42.5 L 56.25 45.5 L 59.25 45 L 63.75 42 L 68.75 36.75 L 71 31.75 L 71 26 L 70 23 L 69.25 22.5 L 69 21 L 67 18 Z M 61.75 23.25 L 61.75 25.25 L 60.5 29.25 L 57.75 33 L 57.75 34 L 56 37.5 L 55.25 36.75 L 55 31.5 L 56 29.5 L 59 26.5 L 61 23.25 Z M 65.5 22.5 L 67.5 28 L 67.5 30 L 66.5 33.25 L 62.25 38.5 L 59 40.25 L 61.25 34.5 L 64 30.5 L 65 27.75 L 65 23 Z M 13.75 7.75 L 11.75 11 L 10.5 15.5 L 9.75 16.25 L 9.5 18.75 L 8.75 19.75 L 8.5 22.75 L 7.75 24.25 L 7.75 36.75 L 10.75 44.75 L 16 51 L 19.75 54 L 25 57 L 26.5 57.25 L 29.75 59 L 35.75 60.25 L 37 61 L 47 62 L 48 61 L 49 58 L 49 55.5 L 50 51.75 L 50 43 L 49.25 41.75 L 49 38.25 L 46.75 33.25 L 41.75 27.75 L 33.25 23.5 L 32.75 22.75 L 28.25 20.5 L 24.5 17.75 L 19.25 12.75 L 16 7.75 Z M 13.25 18 L 14 18 L 15.75 25 L 20 33 L 25.25 39 L 32.5 44.25 L 37.5 49.25 L 41.5 54.25 L 43.25 57.25 L 42.75 58 L 34.25 56.5 L 33.5 55.75 L 31 55.5 L 30.25 54.75 L 24.25 52.5 L 20 49.5 L 14.25 43.25 L 12.25 39 L 11 32.75 L 11.25 26 L 12 24.5 L 12 22.25 Z M 13.75 31.25 L 13.75 36.75 L 14.75 38.25 L 14.75 39.75 L 19 46 L 22.5 49 L 27.5 52 L 31 53 L 32.25 54 L 35.75 54.5 L 37 53.75 L 36.75 51 L 31.25 45.75 L 24.5 40.75 L 19 35 L 16.25 30.75 L 14.25 30.75 Z M 14.75 30.75 L 15.75 30.75 L 16.75 31.5 L 19.25 35.5 L 24.25 40.75 L 29.75 44.75 L 35.75 50.25 L 37 52 L 37 53.25 L 36.25 54 L 33 54 L 27.5 51.75 L 22.5 48.75 L 18 44.5 L 15.75 41.25 L 13.75 36 L 13.5 32.25 Z M 17 16.5 L 17.75 16.5 L 21.25 20 L 26.5 24 L 33.5 28 L 39 30.25 L 42.5 33.5 L 44.5 37 L 45.75 41.25 L 46.25 49.75 L 45.5 54 L 40 46.5 L 32.75 39.75 L 29.25 37.5 L 24 32.25 L 20 25.5 L 18 20 L 18.25 18.75 Z" fill="#003F38" fill-rule="evenodd"/>
</svg>
