<svg xmlns="http://www.w3.org/2000/svg" width="74" height="74" viewBox="0 0 74 74" fill="none">
<path d="M 35.75 31 L 34 32 L 32 34.5 L 32 38.75 L 34.75 41.75 L 37 42.25 L 39.75 41.75 L 42.75 38.5 L 42.75 34.75 L 40.25 31.75 L 38.75 31 Z" fill="#AED6AB" fill-rule="evenodd"/>
<path d="M 37.5 44.25 L 35.25 44.75 L 33.75 46.25 L 33.75 53.5 L 33.25 54.5 L 31.75 52.75 L 29 52 L 27.25 52.75 L 25.75 55.25 L 26.75 58 L 36.25 67 L 37.75 67 L 39.75 66 L 46.75 59 L 48.25 56.5 L 48 54 L 47 52.75 L 45.25 52 L 44 52 L 41.25 54 L 41 47.25 L 39 44.75 Z M 35.25 30.75 L 31.75 34 L 31.25 36.25 L 31.75 39.25 L 32.75 40.75 L 34.5 42 L 38 42.75 L 40.25 42 L 42.75 39.25 L 43.25 37.25 L 43 34.25 L 39.25 30.75 Z M 35.75 30.75 L 38.75 30.75 L 40.25 31.5 L 43 34.75 L 43 38.5 L 39.75 42 L 37.5 42.5 L 34.75 42 L 31.75 38.75 L 31.75 34.5 L 34 31.75 Z M 54.75 25.75 L 53 27.25 L 52.5 28.5 L 52.75 31 L 54.25 33.25 L 46.75 33.5 L 44.75 35.25 L 44.5 37.5 L 44.75 38.5 L 46.75 40.25 L 54.5 41 L 52.75 42.75 L 52.75 46.25 L 54.75 48 L 57.5 48 L 66.75 39 L 67.25 36.75 L 67 35.25 L 58.75 26.75 L 57.25 25.75 Z M 16.5 25.75 L 7.75 34 L 6.75 35.5 L 6.75 38 L 15.25 47 L 16.75 48 L 19 48 L 20.75 46.75 L 21.25 45.5 L 21 42.5 L 19.5 40.75 L 20 40.25 L 25.5 40.5 L 27.75 40 L 28.75 39 L 29.25 36 L 28.75 34.75 L 27.25 33.5 L 19.25 33 L 21 31.25 L 21 27.25 L 19.25 25.75 Z M 36.25 6.5 L 34.25 7.75 L 26.75 15.25 L 26 18.25 L 27.25 20.25 L 29.75 21.25 L 31.25 21 L 32.75 19.25 L 33.75 19.25 L 33.75 26.75 L 35.75 29 L 38.5 29 L 40 27.75 L 41 26 L 40.75 19.5 L 41.25 19 L 43.25 21 L 46.5 21 L 48 19.5 L 48.25 16.75 L 48 15.75 L 39 6.75 Z" fill="#003F38" fill-rule="evenodd"/>
</svg>
