<svg xmlns="http://www.w3.org/2000/svg" width="76" height="76" viewBox="0 0 76 76" fill="none">
<path d="M 43 40 L 37.75 44.5 L 38 45.5 L 40.5 48 L 41.25 48 L 45.5 43.75 L 45.5 42.25 Z M 33 30 L 32 30.25 L 27.75 34.5 L 27.75 35.25 L 30.5 38 L 31.5 37.75 L 35.75 33.25 L 35.5 32.25 Z" fill="#AED6AB" fill-rule="evenodd"/>
<path d="M 33.5 29.75 L 31.75 30 L 27.75 34 L 25.25 31.75 L 23.5 31.75 L 16.75 38.5 L 13.75 42.25 L 13.75 43.25 L 12.75 44.75 L 12.5 51.75 L 12.75 53.5 L 14.5 57 L 9.5 61.75 L 9.75 63.75 L 12 66 L 13.75 66.5 L 19.25 61.25 L 22 63 L 28 63.5 L 31.5 63 L 36.5 60 L 44 52.5 L 44.25 51 L 42 48.75 L 41.75 47.75 L 45.75 44 L 46 42.25 L 43.5 39.75 L 42 39.75 L 38 44 L 37.25 44 L 31.75 38.25 L 35.75 34 L 36 32.25 Z M 43 39.75 L 45.75 42.25 L 46 43.5 L 41.25 48.25 L 40.5 48.25 L 37.5 45 L 37.75 44.25 Z M 24.5 39 L 36.75 51.5 L 33 55.5 L 30 57.5 L 24.75 57.75 L 23 57.25 L 20.25 55.25 L 18.25 52.25 L 18.25 46.25 L 19.25 44.25 Z M 33 29.75 L 35.75 32.25 L 36 33.25 L 31.25 38.25 L 30.5 38.25 L 27.5 35.25 L 27.5 34.5 L 32.25 29.75 Z M 64 8.75 L 62.75 8.75 L 57.75 13.75 L 53 11.75 L 46.5 11.75 L 45.5 12.5 L 43.75 12.75 L 39.5 15.75 L 32.25 23 L 32.75 25 L 52.25 44 L 60.75 35.75 L 63 32.5 L 64 29.75 L 64 22.25 L 62 18.5 L 67.25 12.75 L 67 11.75 Z M 48 17.25 L 51.75 17.25 L 55.25 19 L 57.5 21.5 L 58.75 24.75 L 58.5 28.25 L 57.5 30.5 L 52.25 36 L 39.75 23.75 L 44.5 19 Z" fill="#003F38" fill-rule="evenodd"/>
</svg>
