<svg xmlns="http://www.w3.org/2000/svg" width="69" height="74" viewBox="0 0 69 74" fill="none">
<path d="M 21.5 49 L 18.25 56 L 20 59.5 L 21.5 60.5 L 35.5 60.5 L 35.5 48.25 L 22.25 48.25 Z M 48.75 34.75 L 55.25 45.5 L 63 45.5 L 65.5 43.75 L 66 42.25 L 65.5 38 L 59.5 28.25 L 50.5 33.25 Z M 43.75 9.25 L 29 9.25 L 26.5 10.5 L 20.25 20.5 L 18.5 24.5 L 24.5 27.5 L 29 30.5 L 30.25 30.25 L 39.5 13.75 L 41.5 11 Z" fill="#1C7F3B" fill-rule="evenodd"/>
<path d="M 21.25 48.25 L 18 54.5 L 18 57.75 L 19.25 59.75 L 22.75 61.5 L 35.5 61.5 L 36 61 L 36 48 L 35.5 47.5 L 22.25 47.5 Z M 21.25 49 L 22.25 48 L 35.75 48.25 L 35.75 60.5 L 35.25 61 L 21.5 60.75 L 19 58.75 L 18 56 Z M 66.5 45.25 L 64.5 46.75 L 61.25 47.5 L 48.5 47.5 L 47.75 46.75 L 47.75 43 L 46 44.25 L 40.25 54.5 L 46.75 65.5 L 47.75 65.75 L 48 65.25 L 47.75 62.25 L 48.5 61.5 L 55.5 61.5 L 58.75 59.5 L 65.75 47.5 Z M 8.25 31.25 L 9.25 32.75 L 10.75 33.25 L 11.75 34.5 L 8 40.75 L 8 43.75 L 16.25 58 L 16.75 57.5 L 17 53.25 L 23.75 41.75 L 24.5 41 L 27.25 43 L 28.25 42.75 L 28.25 42.25 L 21.5 31.25 Z M 58.75 27.75 L 57.75 28.75 L 48 34 L 48 34.75 L 55 46.25 L 62 46.5 L 65.75 44.5 L 66.75 42.75 L 66.75 39 L 60.75 28.5 L 60 27.75 Z M 59.5 28 L 65.75 38 L 66.25 42.25 L 65.75 43.75 L 63 45.75 L 55.75 46 L 54.25 44.75 L 48.5 34.5 Z M 57.75 15.5 L 54.25 17.25 L 53.25 16.5 L 51 12.5 L 49 11 L 45.25 10.75 L 43.25 11.75 L 41 14.25 L 38.5 18.75 L 38.75 20.25 L 41.25 24 L 41 24.75 L 38.25 26 L 38.25 27 L 50.5 27.25 L 51.75 26.75 L 57.75 16.75 Z M 45.5 9.25 L 44.25 8.75 L 28.75 8.75 L 27.5 9.25 L 25 11.25 L 18 23.25 L 17.75 24.5 L 29.5 31.25 L 30.5 31 L 41 12.5 L 43.25 10.25 Z M 43.75 9.75 L 42.25 10.5 L 39.75 13.75 L 30 30.75 L 29 30.75 L 26.25 28.75 L 18.5 24.75 L 18 24 L 25.25 11.5 L 26.5 10.25 L 29 9 Z" fill="#2EAA38" fill-rule="evenodd"/>
</svg>
